<svg width="24" height="25" viewBox="0 0 24 25" fill="none" xmlns="http://www.w3.org/2000/svg">
<path d="M5 7.3252H6C6.53043 7.3252 7.03914 7.11448 7.41421 6.73941C7.78929 6.36434 8 5.85563 8 5.3252C8 5.05998 8.10536 4.80563 8.29289 4.61809C8.48043 4.43055 8.73478 4.3252 9 4.3252H15C15.2652 4.3252 15.5196 4.43055 15.7071 4.61809C15.8946 4.80563 16 5.05998 16 5.3252C16 5.85563 16.2107 6.36434 16.5858 6.73941C16.9609 7.11448 17.4696 7.3252 18 7.3252H19C19.5304 7.3252 20.0391 7.53591 20.4142 7.91098C20.7893 8.28605 21 8.79476 21 9.3252V18.3252C21 18.8556 20.7893 19.3643 20.4142 19.7394C20.0391 20.1145 19.5304 20.3252 19 20.3252H5C4.46957 20.3252 3.96086 20.1145 3.58579 19.7394C3.21071 19.3643 3 18.8556 3 18.3252V9.3252C3 8.79476 3.21071 8.28605 3.58579 7.91098C3.96086 7.53591 4.46957 7.3252 5 7.3252Z" stroke="#ffffff" stroke-width="2" stroke-linecap="round" stroke-linejoin="round"/>
<path d="M9 13.3252C9 14.1208 9.31607 14.8839 9.87868 15.4465C10.4413 16.0091 11.2044 16.3252 12 16.3252C12.7956 16.3252 13.5587 16.0091 14.1213 15.4465C14.6839 14.8839 15 14.1208 15 13.3252C15 12.5295 14.6839 11.7665 14.1213 11.2039C13.5587 10.6413 12.7956 10.3252 12 10.3252C11.2044 10.3252 10.4413 10.6413 9.87868 11.2039C9.31607 11.7665 9 12.5295 9 13.3252Z" stroke="#ffffff" stroke-width="2" stroke-linecap="round" stroke-linejoin="round"/>
</svg>
